<?xml version="1.0" standalone="no"?>
<!DOCTYPE svg PUBLIC "-//W3C//DTD SVG 20010904//EN"
 "http://www.w3.org/TR/2001/REC-SVG-20010904/DTD/svg10.dtd">
<svg version="1.0" xmlns="http://www.w3.org/2000/svg"
 width="24" height="24" viewBox="0 0 135.000000 90.000000"
 preserveAspectRatio="xMidYMid meet">

<g transform="translate(0.000000,90.000000) scale(0.100000,-0.100000)"
fill="#000000" stroke="none">
<path d="M666 885 c-3 -9 -6 -32 -6 -50 0 -26 5 -34 23 -38 12 -3 119 -8 237
-11 118 -4 254 -9 301 -12 74 -4 88 -3 109 14 18 14 22 25 17 44 -6 24 -12 27
-79 32 -40 4 -174 11 -296 16 -123 6 -241 13 -261 16 -30 5 -39 3 -45 -11z"/>
<path d="M266 739 c-82 -20 -132 -81 -123 -151 5 -38 28 -77 83 -146 37 -45
34 -85 -7 -128 -32 -33 -36 -34 -110 -34 l-77 0 -5 -37 c-2 -21 -2 -41 0 -45
5 -9 474 -8 678 1 l139 6 33 43 c42 55 44 108 8 167 -77 125 -88 178 -42 210
27 19 274 10 296 -11 17 -16 7 -22 -49 -26 -24 -2 -34 -7 -32 -17 2 -11 -2
-10 -22 3 -62 40 -96 5 -97 -100 -1 -139 29 -182 95 -139 21 14 24 14 29 0 4
-8 16 -15 27 -15 18 0 20 6 20 56 0 48 2 55 18 52 9 -2 15 -11 14 -19 -2 -8
-1 -54 3 -102 8 -99 20 -120 69 -115 l31 3 -4 218 -4 217 46 0 c51 0 67 14 57
50 -5 22 -12 26 -70 31 -36 4 -243 12 -460 18 -217 6 -420 13 -450 15 -30 2
-72 0 -94 -5z m381 -99 l53 0 -6 -53 c-6 -51 -5 -55 45 -127 54 -80 62 -114
34 -149 -17 -20 -30 -22 -225 -28 -115 -3 -208 -3 -208 0 0 4 9 21 20 39 32
53 26 85 -30 162 -56 76 -62 107 -27 144 22 24 23 24 156 18 74 -3 158 -6 188
-6z m361 -117 c-1 -5 1 -31 5 -59 8 -56 2 -84 -18 -84 -20 0 -34 96 -19 134 6
16 36 23 32 9z m130 -15 c-4 -28 -24 -34 -31 -9 -6 22 0 31 20 31 9 0 13 -8
11 -22z"/>
<path d="M441 460 l-2 -140 25 0 26 0 0 140 c0 140 0 140 -23 140 -23 0 -23
-1 -26 -140z"/>
<path d="M530 460 c0 -132 1 -140 20 -140 17 0 19 8 22 78 l3 77 24 -77 c21
-68 27 -78 48 -78 l23 0 0 140 c0 132 -1 140 -20 140 -17 0 -19 -8 -22 -77
l-3 -78 -25 77 c-21 67 -28 78 -47 78 -23 0 -23 -1 -23 -140z"/>
<path d="M140 113 c-129 -5 -132 -6 -128 -56 l3 -42 315 3 c173 1 350 5 393 8
l78 6 -3 42 -3 41 -285 1 c-157 0 -323 -1 -370 -3z"/>
</g>
</svg>
